<svg width="694" height="694" viewBox="0 0 694 694" fill="none" xmlns="http://www.w3.org/2000/svg">
<circle cx="347" cy="347" r="347" fill="#F5F5F5"/>
<path d="M191.5 196L207.5 276L147 296L104 351.5L134 389L199 420.5L242.5 344.5L347.5 334.5L452 340.5L494.5 420.5L561 389L587.5 340.5L552 305L487.5 276L500.5 196L480 150L416.5 155L347.5 206L278 155L216.5 150L191.5 196Z" fill="#F5F5F5"/>
<ellipse cx="347" cy="334.915" rx="38" ry="38.5" fill="#2E3749"/>
<path d="M585 347.415C585 357.588 580.095 368.369 568.939 379.342C557.742 390.355 540.921 400.825 519.168 409.875C475.713 427.952 414.849 439.415 347 439.415C279.151 439.415 218.287 427.952 174.832 409.875C153.079 400.825 136.258 390.355 125.061 379.342C113.905 368.369 109 357.588 109 347.415C109 337.243 113.905 326.462 125.061 315.489C136.258 304.476 153.079 294.006 174.832 284.956C218.287 266.879 279.151 255.415 347 255.415C414.849 255.415 475.713 266.879 519.168 284.956C540.921 294.006 557.742 304.476 568.939 315.489C580.095 326.462 585 337.243 585 347.415Z" stroke="#2E3749" stroke-width="24"/>
<path d="M480.088 544.726C471.655 550.415 459.974 552.377 444.639 549.264C429.247 546.14 411.161 538.05 391.494 525.076C352.207 499.159 308.669 455.111 270.728 398.861C232.788 342.612 208.257 285.743 198.944 239.609C194.282 216.514 193.556 196.714 196.425 181.272C199.283 165.888 205.479 155.793 213.912 150.105C222.345 144.416 234.026 142.454 249.361 145.567C264.753 148.691 282.839 156.781 302.506 169.755C341.793 195.672 385.331 239.72 423.271 295.97C461.212 352.219 485.743 409.088 495.056 455.222C499.718 478.317 500.443 498.117 497.575 513.559C494.717 528.943 488.521 539.038 480.088 544.726Z" stroke="#2E3749" stroke-width="24"/>
<path d="M213.912 544.726C205.479 539.038 199.283 528.943 196.425 513.559C193.556 498.117 194.282 478.317 198.944 455.222C208.257 409.088 232.788 352.219 270.728 295.97C308.669 239.72 352.207 195.672 391.494 169.755C411.161 156.781 429.247 148.691 444.639 145.567C459.974 142.454 471.655 144.416 480.088 150.105C488.521 155.793 494.717 165.888 497.575 181.272C500.443 196.714 499.718 216.514 495.056 239.609C485.743 285.743 461.212 342.612 423.271 398.861C385.331 455.111 341.793 499.159 302.506 525.076C282.839 538.05 264.753 546.139 249.361 549.264C234.026 552.377 222.345 550.415 213.912 544.726Z" stroke="#2E3749" stroke-width="24"/>
<path d="M428.992 581.415C464.592 571.415 498.492 549.249 510.992 539.415C517.497 464.915 481.997 384.415 452.497 346.415C442.497 342.815 403.492 334.915 346.492 334.915V552.415C361.992 552.415 378.492 552.415 401.492 544.915C405.992 555.915 420.492 575.415 428.992 581.415Z" fill="#4596D1"/>
<path d="M346.492 552.415C361.992 552.415 378.492 552.415 401.492 544.915C405.992 555.915 420.492 575.415 428.992 581.415C464.592 571.415 498.492 549.249 510.992 539.415C517.497 464.915 481.997 384.415 452.497 346.415C442.497 342.815 403.492 334.915 346.492 334.915" stroke="#2E3749" stroke-width="24"/>
<path d="M264.78 581.415C229.18 571.415 195.28 549.249 182.78 539.415C176.275 464.915 211.775 384.415 241.275 346.415C251.275 342.815 290.28 334.915 347.28 334.915V552.415C331.78 552.415 315.28 552.415 292.28 544.915C287.78 555.915 273.28 575.415 264.78 581.415Z" fill="#4596D1"/>
<path d="M347.28 552.415C331.78 552.415 315.28 552.415 292.28 544.915C287.78 555.915 273.28 575.415 264.78 581.415C229.18 571.415 195.28 549.249 182.78 539.415C176.275 464.915 211.775 384.415 241.275 346.415C251.275 342.815 290.28 334.915 347.28 334.915" stroke="#2E3749" stroke-width="24"/>
<circle cx="288.775" cy="471.094" r="29.2829" fill="#2E3749"/>
<circle cx="404.209" cy="471.094" r="29.2829" fill="#2E3749"/>
</svg>
