<svg width="715" height="715" viewBox="0 0 715 715" fill="none" xmlns="http://www.w3.org/2000/svg">
<path d="M593.7 221.7C620.9 148 621 87.2 587.7 59C574.9 48.1 558 43 538.3 43C490.1 43 424.7 73.8 357.3 127.4C289.9 73.8 224.4 43 176.2 43C156.5 43 139.7 48.2 126.8 59C93.5 87.2 93.6 148 120.8 221.7C47.1 248.6 0.5 287.8 0.5 331.4C0.5 370.7 38.3 406.4 99.8 432.7C103.1 422.3 106.8 412.3 110.8 402.6C85.2 391.5 64.6 378.7 50.9 365.4C38.7 353.6 32.6 342.2 32.6 331.4C32.6 320.6 38.8 309.2 50.9 297.4C65.7 283 88.7 269.2 117.2 257.5C122.3 255.4 127.6 253.4 133 251.4C141.8 271.1 152.3 291.5 164.4 312.2C170 305.6 175.8 299.2 181.9 293.3L187.3 288C178.4 272.2 170.4 256.8 163.6 241.7C182.4 236.4 202.5 231.9 223.8 228.2C234.8 226.3 246 224.6 257.3 223.2C253.3 227.7 249.3 232.3 245.4 237C232.6 252.1 220.5 267.4 209.3 282.7C219.4 280.9 235.6 278.2 255.1 275.6C259.9 269.6 264.8 263.6 269.8 257.7C281.2 244.2 292.9 231.2 304.8 218.8C322 217.7 339.5 217.2 357.1 217.2C374.7 217.2 392.3 217.7 409.4 218.8C421.3 231.2 433 244.2 444.4 257.7C449.4 263.6 454.3 269.6 459.1 275.6C478.7 278.2 494.8 280.9 504.9 282.7C493.7 267.4 481.6 252.1 468.8 237C464.8 232.3 460.9 227.7 456.9 223.2C468.2 224.6 479.4 226.3 490.4 228.2C511.7 231.9 531.9 236.4 550.6 241.7C543.7 256.8 535.8 272.3 526.9 288L532.3 293.3C538.4 299.3 544.2 305.6 549.8 312.2C561.9 291.5 572.5 271.1 581.2 251.4C586.6 253.4 591.9 255.4 597 257.5C625.6 269.2 648.5 283 663.3 297.4C675.5 309.2 681.6 320.6 681.6 331.4C681.6 342.2 675.4 353.6 663.3 365.4C649.6 378.7 629 391.5 603.4 402.6C607.4 412.3 611 422.4 614.4 432.7C675.9 406.4 713.7 370.7 713.7 331.4C714.1 287.8 667.5 248.6 593.7 221.7ZM290.5 187.5C239.4 191.5 192.2 199.9 151.3 211.8C149.3 206.4 147.4 201.1 145.7 195.8C136.2 166.4 131.9 140 133.3 119.4C134.5 102.5 139.2 90.4 147.5 83.4C154.1 77.8 163.8 74.9 176.2 74.9C206.8 74.9 249.1 91.6 295.4 121.9C307.6 129.9 319.9 138.7 332.1 148.2C318.2 160.5 304.3 173.6 290.5 187.5ZM357.3 185C351.2 185 345.1 185.1 339 185.2C345.1 179.6 351.2 174.1 357.3 168.9C363.4 174.2 369.5 179.6 375.6 185.2C369.5 185 363.4 185 357.3 185ZM568.8 195.8C567.1 201.1 565.2 206.4 563.2 211.8C522.3 199.9 475.1 191.5 424 187.5C410.2 173.5 396.3 160.4 382.4 148.3C394.6 138.8 406.9 130 419.1 122C465.4 91.7 507.7 75 538.3 75C550.7 75 560.4 77.8 567 83.5C575.2 90.5 580 102.6 581.2 119.5C582.6 140 578.3 166.4 568.8 195.8Z" fill="#2E3749"/>
<path d="M510.2 316C510.2 316 430.1 299.8 357.3 299.8C284.5 299.8 204.4 316 204.4 316C95.2001 423.6 107.3 614.2 107.3 614.2C147.2 655.2 243.7 684.8 243.7 684.8C274.4 660.5 286.3 632 286.3 632C286.3 632 327.3 642.2 357.2 642.2C387.1 642.2 428.1 632 428.1 632C428.1 632 440 660.6 470.7 684.8C470.7 684.8 567.2 655.1 607.1 614.2C607.2 614.3 619.4 423.6 510.2 316ZM575.6 599.8C550 620.3 506.1 638.7 478.3 648.7C464.6 634.5 458.3 621.2 457.7 619.7L447.7 594.3L420.5 601.1C410.2 603.7 378.7 610.4 357.3 610.4C336.1 610.4 304.5 603.7 294.1 601.1L267.4 594.4L256.8 619.9C256.7 620.1 250.6 633.8 236.3 648.7C227.4 645.5 215.8 641.1 203.2 635.7C175.7 623.9 153.4 611.4 139 599.9C138.9 582.5 139.8 548.8 146.8 509.7C152.6 476.9 161.4 446.8 173 420.1C185.6 391.1 201.5 366.1 220.4 345.8C243.2 341.7 303 332 357.4 332C411.8 332 471.6 341.7 494.4 345.8C513.3 366.1 529.2 391.1 541.8 420.1C553.4 446.8 562.2 476.9 568 509.7C574.8 548.7 575.7 582.4 575.6 599.8Z" fill="#2E3749"/>
<path d="M305.1 532.3C286.4 541.2 264.9 542.4 245.4 535.5C236.5 516.8 235.3 495.3 242.2 475.8C260.9 466.9 282.4 465.7 301.9 472.6C310.8 491.3 312 512.8 305.1 532.3Z" fill="#2E3749"/>
<path d="M469.2 535.5C449.7 542.4 428.2 541.3 409.5 532.3C402.6 512.8 403.7 491.3 412.7 472.6C432.2 465.7 453.7 466.8 472.4 475.8C479.3 495.3 478.2 516.8 469.2 535.5Z" fill="#2E3749"/>
</svg>
