<svg width="400" height="400" viewBox="0 0 400 400" fill="none" xmlns="http://www.w3.org/2000/svg">
<circle cx="200" cy="200" r="200" fill="white"/>
<path d="M309.831 137.001C322.468 102.76 322.514 74.5127 307.043 61.4111C301.096 56.347 293.244 53.9775 284.092 53.9775C261.698 53.9775 231.314 68.2871 200 93.1894C168.686 68.2871 138.255 53.9775 115.862 53.9775C106.709 53.9775 98.9041 56.3934 92.9108 61.4111C77.4398 74.5127 77.4863 102.76 90.1233 137.001C55.8826 149.498 34.2324 167.711 34.2324 187.967C34.2324 206.226 51.7941 222.812 80.3668 235.03C81.8999 230.199 83.6189 225.553 85.4773 221.046C73.5837 215.889 64.013 209.942 57.648 203.763C51.98 198.281 49.1459 192.985 49.1459 187.967C49.1459 182.949 52.0264 177.653 57.648 172.171C64.5241 165.48 75.2098 159.069 88.4507 153.633C90.8202 152.658 93.2825 151.728 95.7913 150.799C99.8798 159.952 104.758 169.43 110.38 179.047C112.981 175.98 115.676 173.007 118.51 170.266L121.019 167.803C116.884 160.463 113.167 153.308 110.008 146.293C118.742 143.83 128.081 141.74 137.977 140.021C143.087 139.138 148.291 138.348 153.541 137.698C151.682 139.788 149.824 141.925 148.012 144.109C142.065 151.124 136.443 158.233 131.24 165.341C135.932 164.505 143.459 163.25 152.518 162.042C154.749 159.255 157.025 156.467 159.348 153.726C164.644 147.454 170.08 141.414 175.609 135.653C183.6 135.142 191.73 134.91 199.907 134.91C208.084 134.91 216.261 135.142 224.206 135.653C229.734 141.414 235.17 147.454 240.466 153.726C242.789 156.467 245.066 159.255 247.296 162.042C256.402 163.25 263.882 164.505 268.574 165.341C263.371 158.233 257.749 151.124 251.803 144.109C249.944 141.925 248.132 139.788 246.274 137.698C251.524 138.348 256.727 139.138 261.838 140.021C271.734 141.74 281.119 143.83 289.806 146.293C286.601 153.308 282.93 160.509 278.796 167.803L281.304 170.266C284.138 173.053 286.833 175.98 289.435 179.047C295.056 169.43 299.981 159.952 304.023 150.799C306.532 151.728 308.994 152.658 311.364 153.633C324.651 159.069 335.29 165.48 342.166 172.171C347.834 177.653 350.668 182.949 350.668 187.967C350.668 192.985 347.788 198.281 342.166 203.763C335.801 209.942 326.231 215.889 314.337 221.046C316.195 225.553 317.868 230.245 319.448 235.03C348.02 222.812 365.582 206.226 365.582 187.967C365.768 167.711 344.118 149.498 309.831 137.001ZM168.965 121.112C145.224 122.97 123.295 126.873 104.293 132.401C103.364 129.892 102.482 127.43 101.692 124.968C97.278 111.309 95.2803 99.0433 95.9307 89.4726C96.4882 81.621 98.6718 75.9994 102.528 72.7472C105.594 70.1455 110.101 68.7981 115.862 68.7981C130.078 68.7981 149.731 76.5569 171.242 90.6341C176.91 94.3509 182.624 98.4393 188.292 102.853C181.834 108.568 175.377 114.654 168.965 121.112ZM200 119.95C197.166 119.95 194.332 119.997 191.498 120.043C194.332 117.441 197.166 114.886 200 112.47C202.834 114.932 205.668 117.441 208.502 120.043C205.668 119.95 202.834 119.95 200 119.95ZM298.262 124.968C297.472 127.43 296.59 129.892 295.66 132.401C276.658 126.873 254.729 122.97 230.989 121.112C224.577 114.607 218.119 108.521 211.661 102.899C217.33 98.4858 223.044 94.3974 228.712 90.6806C250.223 76.6033 269.875 68.8446 284.092 68.8446C289.853 68.8446 294.359 70.1455 297.426 72.7937C301.236 76.0458 303.466 81.6674 304.023 89.5191C304.674 99.0433 302.676 111.309 298.262 124.968Z" fill="#2E3749"/>
<path d="M194.053 180.115L128.545 188.943L98.3466 243.997L89.9839 318.1L145.038 342.724L162.693 318.1L199.628 324.372L236.099 318.1L256.309 342.724L308.112 318.1L303.001 252.36L269.782 188.943L194.053 180.115Z" fill="#4596D1"/>
<path d="M271.037 180.812C271.037 180.812 233.822 173.286 200 173.286C166.177 173.286 128.963 180.812 128.963 180.812C78.2294 230.803 83.851 319.355 83.851 319.355C102.388 338.403 147.222 352.155 147.222 352.155C161.485 340.865 167.014 327.624 167.014 327.624C167.014 327.624 186.062 332.363 199.953 332.363C213.845 332.363 232.893 327.624 232.893 327.624C232.893 327.624 238.422 340.912 252.685 352.155C252.685 352.155 297.519 338.356 316.056 319.355C316.102 319.401 321.77 230.803 271.037 180.812ZM301.421 312.664C289.527 322.189 269.132 330.737 256.216 335.383C249.851 328.786 246.924 322.607 246.645 321.91L241.999 310.109L229.362 313.268C224.577 314.476 209.942 317.589 200 317.589C190.15 317.589 175.469 314.476 170.637 313.268L158.233 310.156L153.308 322.003C153.262 322.096 150.428 328.461 143.784 335.383C139.649 333.896 134.26 331.852 128.406 329.343C115.629 323.861 105.269 318.054 98.5787 312.711C98.5322 304.627 98.9504 288.97 102.203 270.804C104.897 255.566 108.986 241.581 114.375 229.177C120.229 215.703 127.616 204.088 136.397 194.657C146.99 192.752 174.772 188.246 200.046 188.246C225.32 188.246 253.103 192.752 263.696 194.657C272.477 204.088 279.864 215.703 285.718 229.177C291.107 241.581 295.196 255.566 297.89 270.804C301.049 288.924 301.468 304.58 301.421 312.664Z" fill="#2E3749"/>
<path d="M175.748 281.304C167.06 285.439 157.071 285.996 148.011 282.791C143.876 274.103 143.319 264.114 146.525 255.054C155.213 250.919 165.201 250.362 174.261 253.568C178.396 262.256 178.953 272.244 175.748 281.304Z" fill="#2E3749"/>
<path d="M251.988 282.791C242.928 285.996 232.94 285.485 224.252 281.304C221.046 272.244 221.557 262.256 225.738 253.568C234.798 250.362 244.787 250.873 253.475 255.054C256.681 264.114 256.169 274.103 251.988 282.791Z" fill="#2E3749"/>
</svg>
